<?xml version="1.0" standalone="no"?>
<!DOCTYPE svg PUBLIC "-//W3C//DTD SVG 20010904//EN"
 "http://www.w3.org/TR/2001/REC-SVG-20010904/DTD/svg10.dtd">
<svg version="1.0" xmlns="http://www.w3.org/2000/svg"
 width="512.000000pt" height="512.000000pt" viewBox="0 0 512.000000 512.000000"
 preserveAspectRatio="xMidYMid meet">

<g transform="translate(0.000000,512.000000) scale(0.100000,-0.100000)"
fill="#000000" stroke="none">
<path d="M105 4935 c-24 -23 -25 -28 -25 -175 0 -147 1 -152 25 -175 20 -21
34 -25 80 -25 l55 0 0 -1680 0 -1680 -55 0 c-46 0 -60 -4 -80 -25 -24 -23 -25
-28 -25 -175 0 -147 1 -152 25 -175 l24 -25 1176 0 1175 0 0 -90 c0 -75 -3
-90 -16 -90 -27 0 -119 -101 -132 -146 -28 -94 -8 -169 63 -239 101 -102 229
-102 330 0 71 70 91 145 63 239 -13 45 -105 146 -132 146 -13 0 -16 15 -16 90
l0 90 1175 0 1176 0 24 25 c24 23 25 28 25 175 0 147 -1 152 -25 175 -20 21
-34 25 -80 25 l-55 0 0 1680 0 1680 55 0 c46 0 60 4 80 25 24 23 25 28 25 175
0 147 -1 152 -25 175 l-24 25 -2431 0 -2431 0 -24 -25z m4775 -175 l0 -40
-2320 0 -2320 0 0 40 0 40 2320 0 2320 0 0 -40z m-160 -1880 l0 -1680 -2160 0
-2160 0 0 1680 0 1680 2160 0 2160 0 0 -1680z m160 -1880 l0 -40 -2320 0
-2320 0 0 40 0 40 2320 0 2320 0 0 -40z m-2265 -545 c50 -49 15 -135 -55 -135
-19 0 -40 9 -55 25 -50 49 -15 135 55 135 19 0 40 -9 55 -25z"/>
</g>
</svg>
