<?xml version="1.0" standalone="no"?>
<!DOCTYPE svg PUBLIC "-//W3C//DTD SVG 20010904//EN"
 "http://www.w3.org/TR/2001/REC-SVG-20010904/DTD/svg10.dtd">
<svg version="1.0" xmlns="http://www.w3.org/2000/svg"
 width="512.000000pt" height="512.000000pt" viewBox="0 0 512.000000 512.000000"
 preserveAspectRatio="xMidYMid meet">

<g transform="translate(0.000000,512.000000) scale(0.100000,-0.100000)"
fill="#000000" stroke="none">
<path d="M2365 5114 c-382 -39 -672 -123 -980 -283 -248 -128 -425 -260 -635
-470 -213 -214 -352 -406 -484 -672 -358 -719 -355 -1556 9 -2274 137 -272
292 -483 508 -691 204 -197 401 -336 652 -459 186 -92 306 -136 499 -185 591
-149 1198 -87 1744 180 265 129 469 276 688 494 220 221 358 413 489 681 93
190 138 311 185 500 61 242 74 355 74 625 0 232 -14 372 -54 558 l-12 52
-1304 0 -1304 0 0 -610 0 -610 655 0 c360 0 655 -4 655 -8 0 -5 -32 -58 -72
-118 -466 -709 -1463 -810 -2064 -210 -511 512 -526 1332 -33 1860 271 290
641 440 1039 423 339 -15 628 -140 875 -379 l101 -97 427 427 c235 235 427
432 427 439 0 13 -206 205 -306 285 -343 273 -773 457 -1226 524 -99 14 -470
26 -553 18z m344 -244 c493 -34 940 -210 1320 -520 l80 -65 -259 -259 -258
-259 -74 54 c-381 284 -843 386 -1297 288 -536 -116 -983 -515 -1160 -1036
-64 -186 -75 -265 -76 -508 0 -194 3 -232 23 -323 32 -143 65 -240 123 -362
213 -447 618 -765 1113 -872 138 -30 473 -33 611 -5 325 66 586 207 821 441
190 191 287 345 385 611 l48 130 -712 5 -712 5 0 365 0 365 1074 3 c591 1
1078 -1 1082 -5 29 -29 42 -461 20 -633 -70 -530 -297 -996 -666 -1365 -697
-697 -1745 -877 -2634 -453 -485 232 -888 643 -1109 1132 -139 308 -205 615
-205 956 0 341 66 648 205 956 332 735 1038 1251 1838 1343 86 10 129 14 240
19 19 1 100 -3 179 -8z"/>
</g>
</svg>
