<?xml version="1.0" standalone="no"?>
<!DOCTYPE svg PUBLIC "-//W3C//DTD SVG 20010904//EN"
 "http://www.w3.org/TR/2001/REC-SVG-20010904/DTD/svg10.dtd">
<svg version="1.0" xmlns="http://www.w3.org/2000/svg"
 width="512.000000pt" height="512.000000pt" viewBox="0 0 512.000000 512.000000"
 preserveAspectRatio="xMidYMid meet">

<g transform="translate(0.000000,512.000000) scale(0.100000,-0.100000)"
fill="#000000" stroke="none">
<path d="M2405 3714 c-171 -41 -336 -174 -414 -334 -91 -187 -93 -381 -6 -565
79 -163 239 -295 418 -342 82 -22 233 -21 316 1 332 89 536 418 466 751 -49
233 -245 435 -475 489 -81 19 -225 19 -305 0z"/>
<path d="M725 3393 c-121 -44 -205 -118 -258 -231 -30 -63 -32 -74 -32 -177 0
-105 2 -114 34 -180 133 -270 485 -327 690 -110 201 212 140 546 -123 675 -62
31 -80 35 -165 37 -73 3 -108 -1 -146 -14z"/>
<path d="M4130 3390 c-165 -61 -273 -200 -287 -371 -21 -254 202 -477 456
-456 176 15 322 132 375 302 28 88 19 211 -21 297 -44 93 -109 160 -201 205
-68 34 -83 38 -171 40 -77 3 -107 -1 -151 -17z"/>
<path d="M515 2343 c-102 -14 -236 -74 -317 -143 -63 -54 -143 -176 -169 -258
-16 -49 -23 -102 -27 -194 -4 -118 -3 -129 19 -168 13 -22 39 -51 59 -63 35
-22 38 -22 510 -22 l475 0 6 105 c4 58 14 134 24 170 21 82 80 210 134 288 41
61 166 192 182 192 5 0 9 4 9 9 0 16 -143 69 -217 80 -67 10 -617 13 -688 4z"/>
<path d="M3895 2336 c-38 -8 -98 -26 -133 -41 l-63 -28 75 -74 c88 -86 144
-165 196 -277 51 -108 71 -190 79 -316 l6 -105 475 0 475 0 37 23 c22 14 45
41 58 68 20 41 22 56 18 167 -6 151 -29 227 -99 331 -58 88 -119 143 -209 190
-129 68 -140 69 -510 72 -248 2 -353 0 -405 -10z"/>
<path d="M1832 2116 c-161 -39 -310 -160 -381 -309 -57 -120 -63 -160 -59
-417 3 -214 4 -227 25 -256 49 -68 -21 -64 1143 -64 1164 0 1094 -4 1143 64
21 29 22 42 25 251 4 257 -3 307 -60 424 -74 150 -220 268 -379 306 -54 12
-170 15 -734 14 -508 -1 -683 -4 -723 -13z"/>
</g>
</svg>
