<?xml version="1.0" standalone="no"?>
<!DOCTYPE svg PUBLIC "-//W3C//DTD SVG 20010904//EN"
 "http://www.w3.org/TR/2001/REC-SVG-20010904/DTD/svg10.dtd">
<svg version="1.0" xmlns="http://www.w3.org/2000/svg"
 width="512.000000pt" height="512.000000pt" viewBox="0 0 512.000000 512.000000"
 preserveAspectRatio="xMidYMid meet">

<g transform="translate(0.000000,512.000000) scale(0.100000,-0.100000)"
fill="#000000" stroke="none">
<path d="M2280 4675 c-720 -100 -1337 -549 -1646 -1200 -85 -179 -141 -356
-181 -575 -25 -136 -25 -544 0 -680 87 -471 279 -844 601 -1166 321 -321 699
-516 1161 -600 121 -22 442 -30 576 -15 589 68 1126 374 1475 842 209 282 334
574 399 934 22 123 31 423 16 566 -104 995 -891 1788 -1886 1899 -122 13 -399
11 -515 -5z m532 -644 c627 -108 1112 -595 1220 -1226 26 -154 21 -408 -11
-552 -135 -607 -606 -1060 -1209 -1164 -588 -100 -1179 160 -1506 664 -316
485 -316 1129 0 1614 203 313 509 538 860 633 201 54 443 65 646 31z"/>
<path d="M2435 3620 c-160 -21 -336 -86 -472 -177 -72 -48 -192 -160 -248
-233 -145 -190 -218 -409 -218 -650 0 -303 113 -565 334 -775 306 -290 768
-372 1150 -204 360 157 597 484 640 882 20 185 -16 378 -105 562 -107 219
-267 381 -482 489 -179 89 -409 130 -599 106z"/>
</g>
</svg>
